<?xml version="1.0" standalone="no"?>
<!DOCTYPE svg PUBLIC "-//W3C//DTD SVG 20010904//EN"
 "http://www.w3.org/TR/2001/REC-SVG-20010904/DTD/svg10.dtd">
<svg version="1.0" xmlns="http://www.w3.org/2000/svg"
 width="787.000000pt" height="777.000000pt" viewBox="0 0 787.000000 777.000000"
 preserveAspectRatio="xMidYMid meet">

<g transform="translate(0.000000,777.000000) scale(0.100000,-0.100000)"
fill="#000000" stroke="none">
<path d="M3655 7604 c-16 -2 -79 -9 -140 -15 -608 -60 -1246 -312 -1761 -694
-597 -444 -1050 -1062 -1283 -1752 -199 -592 -247 -1238 -135 -1841 281 -1527
1507 -2720 3031 -2952 222 -33 381 -43 641 -37 266 5 408 20 642 67 973 197
1838 798 2373 1650 85 135 232 422 286 560 128 322 210 654 246 997 19 173 21
533 6 703 -109 1159 -765 2203 -1761 2802 -435 262 -906 424 -1432 494 -116
15 -636 29 -713 18z m740 -373 c1075 -166 1966 -802 2460 -1754 248 -478 369
-976 369 -1517 0 -222 -11 -349 -45 -555 -120 -717 -492 -1399 -1027 -1882
l-105 -94 -52 89 c-372 636 -970 1051 -1690 1173 -156 27 -449 36 -610 20
-437 -45 -851 -206 -1197 -466 -266 -200 -469 -429 -643 -727 l-52 -89 -94 84
c-409 364 -751 892 -923 1425 -112 347 -159 645 -159 1012 0 239 8 351 44 565
173 1034 835 1927 1778 2400 354 177 691 278 1101 330 179 22 661 14 845 -14z"/>
<path d="M3690 5725 c-570 -104 -1018 -545 -1125 -1106 -143 -757 364 -1490
1125 -1625 126 -22 344 -22 470 0 770 137 1276 880 1120 1645 -113 556 -562
989 -1124 1086 -110 19 -362 19 -466 0z"/>
</g>
</svg>
